<svg width="201" height="201" viewBox="0 0 201 201" fill="none" xmlns="http://www.w3.org/2000/svg">
<circle cx="100.5" cy="100.5" r="100.5" fill="#FF8A00"/>
<path d="M104.364 49.9091V62.2727H72.9091V49.9091H104.364ZM79.2727 38.8182H95.8182V80.2727C95.8182 81.7273 96.0152 82.6364 96.4091 83C96.8333 83.3636 97.5455 83.5455 98.5455 83.5455C99.1818 83.5455 99.8333 83.4848 100.5 83.3636C101.197 83.2424 101.636 83.1818 101.818 83.1818L104.364 95.5455C103.545 95.8182 102.485 96.0758 101.182 96.3182C99.8788 96.5606 98.2727 96.7273 96.3636 96.8182C91.2727 97 87.1515 96.0152 84 93.8636C80.8485 91.6818 79.2727 88 79.2727 82.8182V38.8182ZM105.38 96.4545V49.9091H121.016V58.4545H121.744C122.744 55.7273 124.35 53.5303 126.562 51.8636C128.804 50.197 131.562 49.3636 134.835 49.3636C137.744 49.3636 140.35 50.0909 142.653 51.5454C144.986 53 146.562 55 147.38 57.5454H147.925C149.016 55.0909 150.835 53.1212 153.38 51.6364C155.956 50.1212 158.925 49.3636 162.289 49.3636C166.38 49.3636 169.88 50.6818 172.789 53.3182C175.728 55.9545 177.198 59.9091 177.198 65.1818V96.4545H160.653V68.2727C160.653 66.1818 160.001 64.7879 158.698 64.0909C157.425 63.3636 156.198 63 155.016 63C153.289 63 151.91 63.5455 150.88 64.6364C149.88 65.7273 149.38 67.1818 149.38 69V96.4545H133.198V67.7273C133.198 66.2727 132.622 65.1212 131.471 64.2727C130.35 63.4242 129.107 63 127.744 63C126.38 63 125.062 63.6061 123.789 64.8182C122.547 66 121.925 67.6364 121.925 69.7273V96.4545H105.38Z" fill="white"/>
<path d="M58.8182 159.273C51.3636 159.273 44.9394 157.848 39.5455 155C34.1818 152.121 30.0455 148 27.1364 142.636C24.2576 137.242 22.8182 130.788 22.8182 123.273C22.8182 116.061 24.2727 109.758 27.1818 104.364C30.0909 98.9697 34.197 94.7727 39.5 91.7727C44.803 88.7727 51.0606 87.2727 58.2727 87.2727C63.5455 87.2727 68.3182 88.0909 72.5909 89.7273C76.8636 91.3636 80.5152 93.7424 83.5455 96.8636C86.5758 99.9545 88.9091 103.712 90.5455 108.136C92.1818 112.561 93 117.545 93 123.091V128.909H30.6364V115.091H69.9091C69.8788 113.091 69.3636 111.333 68.3636 109.818C67.3939 108.273 66.0758 107.076 64.4091 106.227C62.7727 105.348 60.9091 104.909 58.8182 104.909C56.7879 104.909 54.9242 105.348 53.2273 106.227C51.5303 107.076 50.1667 108.258 49.1364 109.773C48.1364 111.288 47.6061 113.061 47.5455 115.091V130C47.5455 132.242 48.0152 134.242 48.9545 136C49.8939 137.758 51.2424 139.136 53 140.136C54.7576 141.136 56.8788 141.636 59.3636 141.636C61.0909 141.636 62.6667 141.394 64.0909 140.909C65.5455 140.424 66.7879 139.727 67.8182 138.818C68.8485 137.879 69.6061 136.758 70.0909 135.455H93C92.2121 140.303 90.3485 144.515 87.4091 148.091C84.4697 151.636 80.5758 154.394 75.7273 156.364C70.9091 158.303 65.2727 159.273 58.8182 159.273Z" fill="white"/>
</svg>
